<svg width="118" height="84" viewBox="0 0 118 84" fill="none" xmlns="http://www.w3.org/2000/svg">
<g filter="url(#filter0_d_13_1947)">
<path d="M106.25 25.9923L92.443 61.9389L92.3305 62.2439C92.3305 62.3686 89.4575 72.0067 81.9697 72.0067C74.4818 72.0067 71.6089 62.3686 71.5875 62.267L62.3791 38.2409L53.3315 14.677C52.7633 12.7919 48.1055 -1 34.0357 -1C19.9658 -1 15.3134 12.7919 14.7399 14.677L0 53.0262H9.74975L23.5891 17.075L23.6963 16.7654C23.7231 16.6499 26.5693 7.021 34.0571 7.021C41.545 7.021 44.3965 16.6499 44.4393 16.7238L53.6477 40.7498L62.7007 64.3138C63.2688 66.2082 67.9266 80 81.9965 80C96.0663 80 100.729 66.2082 101.292 64.3138L116 25.9969L106.25 25.9923Z" fill="url(#paint0_linear_13_1947)"/>
</g>
<defs>
<filter id="filter0_d_13_1947" x="-1.85709" y="-1" width="119.714" height="84.7142" filterUnits="userSpaceOnUse" color-interpolation-filters="sRGB">
<feFlood flood-opacity="0" result="BackgroundImageFix"/>
<feColorMatrix in="SourceAlpha" type="matrix" values="0 0 0 0 0 0 0 0 0 0 0 0 0 0 0 0 0 0 127 0" result="hardAlpha"/>
<feOffset dy="1.85709"/>
<feGaussianBlur stdDeviation="0.928546"/>
<feComposite in2="hardAlpha" operator="out"/>
<feColorMatrix type="matrix" values="0 0 0 0 0 0 0 0 0 0 0 0 0 0 0 0 0 0 0.25 0"/>
<feBlend mode="normal" in2="BackgroundImageFix" result="effect1_dropShadow_13_1947"/>
<feBlend mode="normal" in="SourceGraphic" in2="effect1_dropShadow_13_1947" result="shape"/>
</filter>
<linearGradient id="paint0_linear_13_1947" x1="-0.0482395" y1="39.4931" x2="115.995" y2="39.4931" gradientUnits="userSpaceOnUse">
<stop stop-color="#7C2A91"/>
<stop offset="1" stop-color="#7CCCC9"/>
</linearGradient>
</defs>
</svg>
